#!OML:ASF E:/inclinewalkrobotboard/Project1/Captureday1/Session1/subject1.ASF
:FULLY-SPECIFIED
:DEGREES
165
root 0 0 0 -2.2322432783125015 -3.936843683179109 0.4753622667321011
lowerback 7.554608584838683 1.5326001947566221 -2.5194199614781074
upperback 1.7750186501296965 1.8985042827783516 -0.02753463996056693
thorax -2.433217969428187 0.9974511024875934 1.2828593054660602
lowerneck -9.464915886012 -5.484250987692903 -6.301701371099195
upperneck 31.308242645621778 -8.609693522660248 5.897218083963841
head 11.692434495316798 -3.9238293246442506 1.9537718471332721
rclavicle -1.4639765666958352E-15 1.2574000735460144E-15
rhumerus -7.240982621444445 0.7359561993651593 -79.26811771223993
rradius 47.91776418226572
rwrist -20.394932293822848
rhand -42.00657437138764 16.39508926891824
rfingers 7.125019999999937
rthumb -14.839547643133432 -13.00943315282836
lclavicle -5.76623612436328E-15 6.069863008638637E-16
lhumerus -30.518247705945107 11.619958552799677 77.82312494788634
lradius 25.02556154222174
lwrist -4.483666317324456
lhand -24.260004721409167 21.859507554691124
lfingers 7.125019999999952
lthumb 2.2275446487781947 51.799218866467896
rfemur -17.178815104764727 7.237102519340854 32.65255298279445
rtibia 40.978115829407685
rfoot -11.442355464256549 -9.545442876154729
rtoes 6.954445640147856
lfemur -23.970445962039488 2.612792538061859 -16.627208647703792
ltibia 51.38237812890273
lfoot -2.0026922393933635 -9.408412612881142
ltoes -4.071922888036583
166
root 0 0 0 -2.2992816344537768 -3.997652776677295 0.4633991486408921
lowerback 7.474708318046871 1.517029249070724 -2.4996862751938798
upperback 1.7263109675417718 1.8816004434438962 -0.021401059948751633
thorax -2.4366883886660955 0.9878618163317584 1.2813214175166836
lowerneck -9.507787792665791 -5.459690803479242 -6.2560625476621805
upperneck 31.427407718953603 -8.591028330702837 5.786514512195467
head 11.72876836609561 -3.9131817261277186 1.9091588252399818
rclavicle -1.9113862568725597E-15 1.2692442998339877E-15
rhumerus -7.260421824937456 0.8332503351508871 -79.24358107449784
rradius 48.16383678601785
rwrist -20.52958288940727
rhand -41.953834622750335 16.208346422287285
rfingers 7.125019999999937
rthumb -14.79323549540496 -13.198145081222659
lclavicle -5.93776840372873E-15 5.018500431925592E-16
lhumerus -30.34368451647648 11.421098114800769 78.1426697752483
lradius 25.070949803272846
lwrist -4.420984170517179
lhand -24.065442977421224 21.926013830902907
lfingers 7.125019999999951
lthumb 2.4142432660617 51.86337890592232
rfemur -18.130295779921916 7.1689722780276135 32.72928298816809
rtibia 40.677527515037426
rfoot -11.350528367703328 -9.282137531713373
rtoes 7.7716200838075284
lfemur -23.3566397854401 3.183140253032308 -16.077722923571038
ltibia 56.247622725721826
lfoot -2.034400231027588 -8.986340184071791
ltoes -5.156859133813024
167
root 0 0 0 -2.3278300154663496 -4.004265612007196 0.4587168387033545
lowerback 7.420063142494859 1.5182552108400689 -2.484273543366611
upperback 1.712044499173491 1.8858934385985753 -0.02224073931748316
thorax -2.418592458103577 0.9896747849561945 1.2722203183005076
lowerneck -9.506270891981247 -5.447723255861906 -6.243344108670564
upperneck 31.46134276530458 -8.581703887644212 5.741732763205409
head 11.739635302768745 -3.908140672511143 1.8908092903463138
rclavicle -2.1703977475597917E-15 1.2700822260662348E-15
rhumerus -7.5314360222859165 1.189194189167274 -79.29849468604304
rradius 48.61480324490613
rwrist -20.688611675955478
rhand -41.91704979430679 16.019829074069985
rfingers 7.125019999999939
rthumb -14.762423200705992 -13.390173102297851
lclavicle -6.015756260726781E-15 4.489128418017014E-16
lhumerus -30.287657031627393 11.318517555060767 78.2632595955437
lradius 25.06728044072701
lwrist -4.425847788026882
lhand -23.947433764892466 21.971924887949314
lfingers 7.12501999999995
lthumb 2.527727442545082 51.9079197111315
rfemur -17.175099765386367 7.291077882574642 32.80035812150453
rtibia 39.174636541804816
rfoot -12.109680380892788 -9.26272616669226
rtoes 7.887442650224132
lfemur -23.784287412086048 3.5307642943532365 -15.298534635170661
ltibia 58.865161382163556
lfoot -2.5314418095885323 -8.06281196221442
ltoes -5.995558919249225
168
root 0 0 0 -2.3384426793163606 -3.992367226321083 0.45803828882689784
lowerback 7.379678733026847 1.5256456039873951 -2.472510921077235
upperback 1.7148699186694052 1.8975688024221462 -0.026236286188781155
thorax -2.3907999258213453 0.9956385098370069 1.2608797777960628
lowerneck -9.478286313918066 -5.442267246736748 -6.246125376918234
upperneck 31.452813425213673 -8.57809127359861 5.7293134549430835
head 11.73660515383101 -3.9064946255648567 1.8851445682160421
rclavicle -2.423082072737264E-15 1.2797533426694011E-15
rhumerus -7.963114114772935 1.7208069498775243 -79.39588718873381
rradius 49.22587469119528
rwrist -20.88953691619756
rhand -41.87374654599693 15.798159925989298
rfingers 7.125019999999941
rthumb -14.725971230500814 -13.617108012437562
lclavicle -6.1239770972054045E-15 4.534602274620737E-16
lhumerus -30.285004161327933 11.255449277874034 78.29657379655228
lradius 25.04907576923764
lwrist -4.4496671882959875
lhand -23.871234023032578 22.00935328838169
lfingers 7.1250199999999495
lthumb 2.601140019607684 51.944271073456676
rfemur -14.863585706657005 7.5098169593555975 32.914328399484866
rtibia 36.841022070420294
rfoot -13.51694253839648 -9.33134800939828
rtoes 7.67101489028731
lfemur -24.567139588817383 3.8160248106687913 -14.486743502600746
ltibia 60.709239590251286
lfoot -3.283910660409955 -6.961525684688523
ltoes -6.786169091964024
